<svg width="828" height="505" viewBox="0 0 828 505" fill="none" xmlns="http://www.w3.org/2000/svg">
<path d="M66.8178 37.3135L63.3011 36.9945C60.5836 36.8351 59.6245 35.7189 59.6245 33.8053C59.6245 31.5729 61.223 30.2972 64.4201 30.2972C66.4981 30.1378 68.5762 30.7756 70.1747 32.0513L72.2528 29.9783C70.0149 28.3837 67.2974 27.5864 64.5799 27.7459C59.9442 27.7459 56.7472 30.1378 56.7472 33.9648C56.7472 37.4729 58.9851 39.3864 63.1412 39.7053L66.658 40.0243C69.2156 40.1837 70.1747 41.2999 70.1747 43.2135C70.1747 45.7648 67.9368 47.0405 64.4201 47.0405C61.8624 47.1999 59.4647 46.2432 57.7063 44.4891L55.6282 46.5621C58.026 48.7945 61.223 49.7513 64.4201 49.5918C69.5353 49.5918 73.2119 47.1999 73.2119 43.054C73.2119 38.908 70.6543 37.6324 66.8178 37.3135ZM93.6728 27.5864C90.1561 27.5864 88.0781 28.2243 86.1598 30.6162L88.2379 32.6891C89.5167 30.9351 91.5948 29.9783 93.6728 30.2972C97.6691 30.2972 99.1078 31.8918 99.1078 34.9216V36.9945H92.7137C87.9182 36.9945 85.3606 39.3864 85.3606 43.2135C85.3606 44.808 85.8401 46.4026 86.9591 47.5189C88.2379 48.954 89.9963 49.4324 93.0334 49.4324C95.2714 49.5918 97.6691 48.7945 99.2676 47.1999V49.2729H102.465V34.7621C102.305 30.1378 99.4275 27.5864 93.6728 27.5864ZM99.1078 41.7783C99.2676 43.054 98.9479 44.4891 97.9888 45.4459C96.71 46.5621 94.9517 47.0405 93.1933 46.881C89.8364 46.881 88.2379 45.7648 88.2379 43.2135C88.2379 40.6621 89.8364 39.3864 93.0334 39.3864H99.1078V41.7783ZM114.613 30.4567C116.532 30.4567 118.45 31.254 119.569 32.8486L121.647 30.7756C119.888 28.7026 117.331 27.427 114.613 27.5864C109.178 27.5864 105.182 31.254 105.182 38.5891C105.182 45.9243 109.338 49.5918 114.613 49.5918C117.331 49.7513 119.888 48.4756 121.647 46.4026L119.569 44.3297C118.45 45.9243 116.532 46.7216 114.613 46.7216C112.695 46.881 110.777 45.9243 109.658 44.3297C108.539 42.5756 108.059 40.6621 108.219 38.5891C108.059 36.5162 108.539 34.6026 109.658 32.8486C110.777 31.254 112.695 30.2972 114.613 30.4567ZM141.468 27.9053H137.632L127.881 37.3135V18.3378H124.684V49.2729H127.881V41.4594L131.717 37.6324L138.911 49.2729H142.747L133.796 35.5594C133.796 35.5594 141.468 27.9053 141.468 27.9053ZM156.175 26.7891C153.617 26.6297 151.059 27.5864 149.301 29.4999C147.223 31.5729 146.743 34.1243 146.743 38.1108C146.743 42.0972 147.223 44.6486 149.301 46.7216C151.059 48.4756 153.617 49.4324 156.175 49.4324C158.732 49.5918 161.29 48.6351 163.048 46.7216C165.126 44.6486 165.606 42.0972 165.606 38.1108C165.606 34.1243 165.126 31.5729 163.048 29.4999C161.29 27.5864 158.732 26.6297 156.175 26.7891ZM158.892 43.5324C157.454 44.808 155.216 44.808 153.777 43.5324C152.658 42.4162 152.498 40.3432 152.498 38.1108C152.498 35.8783 152.658 33.8053 153.777 32.6891C155.216 31.4135 157.454 31.4135 158.892 32.6891C160.011 33.8053 160.171 35.7189 160.171 38.1108C160.171 40.5026 160.011 42.4162 158.892 43.5324ZM180.632 26.9486L176.156 40.6621L171.68 26.9486H165.766L174.078 49.2729H178.394L186.546 26.9486H180.632ZM195.978 26.7891C190.223 26.7891 186.227 30.9351 186.227 38.1108C186.227 47.1999 191.342 49.5918 196.617 49.5918C199.814 49.7513 203.011 48.4756 205.089 46.0837L201.732 42.7351C200.454 44.1702 198.535 44.9675 196.617 44.808C194.059 44.9675 191.822 43.054 191.662 40.5026V39.8648H205.569V37.3135C205.729 31.254 202.212 26.7891 195.978 26.7891ZM191.662 36.0378C191.662 35.2405 191.822 34.4432 192.141 33.6459C192.781 32.2108 194.219 31.4135 195.818 31.4135C197.416 31.254 198.855 32.2108 199.494 33.6459C199.814 34.4432 199.974 35.2405 199.974 36.0378H191.662ZM213.881 29.181V27.108H208.446V49.4324H214.041V36.0378C213.881 33.9648 215.32 32.2108 217.398 31.8918H217.717C218.836 31.8918 219.955 32.3702 220.595 33.1675L224.751 29.0216C223.472 27.5864 221.394 26.7891 219.476 26.9486C217.398 26.7891 215.32 27.5864 213.881 29.181ZM226.509 24.7162V49.2729H232.104V31.7324H236.26V27.427H232.104V25.0351C231.944 24.0783 232.584 23.1216 233.543 22.9621H236.1V18.1783H232.903C229.387 18.0189 226.669 20.7297 226.509 24.2378V24.7162ZM259.119 26.7891C256.561 26.6297 254.004 27.5864 252.245 29.4999C250.167 31.5729 249.688 34.1243 249.688 38.1108C249.688 42.0972 250.167 44.6486 252.245 46.7216C254.004 48.4756 256.561 49.4324 259.119 49.4324C261.677 49.5918 264.234 48.6351 265.993 46.7216C268.071 44.6486 268.55 42.0972 268.55 38.1108C268.55 34.1243 268.071 31.5729 265.993 29.4999C264.234 27.5864 261.677 26.6297 259.119 26.7891ZM261.836 43.5324C260.398 44.808 258.16 44.808 256.721 43.5324C255.602 42.4162 255.442 40.3432 255.442 38.1108C255.442 35.8783 255.602 33.8053 256.721 32.6891C258.16 31.4135 260.398 31.4135 261.836 32.6891C262.955 33.8053 263.115 35.7189 263.115 38.1108C263.115 40.5026 262.955 42.4162 261.836 43.5324ZM294.926 26.9486L291.249 40.6621L286.613 26.9486H282.617L278.141 40.8216L274.465 27.108H268.55L275.424 49.4324H280.059L284.695 35.3999L289.331 49.4324H294.126L301 27.108L294.926 26.9486ZM244.413 42.5756V18.3378H238.818V42.8945C238.658 46.2432 241.216 49.1135 244.572 49.2729H248.569V44.4891H246.491C245.532 44.6486 244.732 44.1702 244.413 43.2135V42.5756V42.5756ZM84.7212 28.3837H78.8067V21.3675H75.6096V43.5324C75.6096 46.7216 77.368 49.2729 81.0446 49.2729H83.2825V46.5621H81.684C79.6059 46.5621 78.8067 45.4459 78.8067 43.3729V31.0945H81.8439C81.8439 31.0945 84.7212 28.3837 84.7212 28.3837Z" fill="white"/>
<path d="M41.5613 52.6216V38.2703H47.9554V59H0V38.2703H6.39405V52.6216" fill="#BCBBBB"/>
<path d="M36.9256 41.4595L38.0446 36.6757L12.3085 31.4135L11.1896 36.6757L36.9256 41.4595ZM14.5465 24.2378L38.5241 35.4L40.7621 30.6162L16.7844 19.4541L14.5465 24.2378ZM21.2602 12.4378L41.5613 29.3405L44.9182 25.3541L24.6171 8.45135L21.2602 12.4378ZM34.368 0L30.052 3.18919L45.8773 24.3973L50.1933 21.2081L34.368 0ZM11.1896 47.8378H36.7658V43.0541H11.1896V47.8378Z" fill="#F48024"/>
<path d="M32.0469 238.059H18.4023V275H15.0391V238.059H1.42188V235.188H32.0469V238.059ZM67.5039 275H64.1133V255.914H41.3633V275H38V235.188H41.3633V253.07H64.1133V235.188H67.5039V275ZM99.1328 255.914H80.5117V272.156H101.922V275H77.1484V235.188H101.785V238.059H80.5117V253.07H99.1328V255.914Z" fill="white"/>
<path d="M546.811 200.031L560.445 232.658L574.131 200.031H578.295V237H575.172V220.902L575.426 204.398L561.664 237H559.252L545.541 204.525L545.795 220.801V237H542.672V200.031H546.811ZM584.777 222.857C584.777 220.217 585.285 217.839 586.301 215.723C587.333 213.607 588.781 211.965 590.643 210.797C592.521 209.612 594.646 209.02 597.016 209.02C600.672 209.02 603.634 210.306 605.902 212.879C608.171 215.435 609.305 218.829 609.305 223.061V223.695C609.305 226.353 608.788 228.748 607.756 230.881C606.74 232.997 605.301 234.63 603.439 235.781C601.577 236.932 599.453 237.508 597.066 237.508C593.427 237.508 590.465 236.23 588.18 233.674C585.911 231.101 584.777 227.699 584.777 223.467V222.857ZM587.824 223.695C587.824 226.979 588.671 229.679 590.363 231.795C592.073 233.894 594.307 234.943 597.066 234.943C599.809 234.943 602.026 233.894 603.719 231.795C605.428 229.679 606.283 226.895 606.283 223.441V222.857C606.283 220.758 605.894 218.837 605.115 217.094C604.337 215.35 603.245 214.005 601.84 213.057C600.435 212.092 598.827 211.609 597.016 211.609C594.307 211.609 592.098 212.676 590.389 214.809C588.679 216.924 587.824 219.701 587.824 223.137V223.695ZM631.555 230.018C631.555 228.511 630.945 227.301 629.727 226.387C628.525 225.473 626.705 224.762 624.268 224.254C621.83 223.729 619.934 223.137 618.58 222.477C617.243 221.799 616.244 220.979 615.584 220.014C614.941 219.049 614.619 217.881 614.619 216.51C614.619 214.343 615.525 212.557 617.336 211.152C619.147 209.73 621.466 209.02 624.293 209.02C627.357 209.02 629.811 209.781 631.656 211.305C633.518 212.811 634.449 214.783 634.449 217.221H631.402C631.402 215.613 630.725 214.275 629.371 213.209C628.034 212.143 626.341 211.609 624.293 211.609C622.296 211.609 620.688 212.058 619.469 212.955C618.267 213.835 617.666 214.986 617.666 216.408C617.666 217.779 618.165 218.846 619.164 219.607C620.18 220.352 622.016 221.038 624.674 221.664C627.348 222.29 629.346 222.959 630.666 223.67C632.003 224.381 632.993 225.236 633.637 226.234C634.28 227.233 634.602 228.443 634.602 229.865C634.602 232.184 633.662 234.038 631.783 235.426C629.921 236.814 627.484 237.508 624.471 237.508C621.271 237.508 618.673 236.738 616.676 235.197C614.695 233.64 613.705 231.676 613.705 229.307H616.752C616.87 231.084 617.615 232.472 618.986 233.471C620.374 234.452 622.202 234.943 624.471 234.943C626.587 234.943 628.296 234.478 629.6 233.547C630.903 232.616 631.555 231.439 631.555 230.018ZM645.68 202.494V209.527H651.367V212.016H645.68V230.322C645.68 231.846 645.951 232.98 646.492 233.725C647.051 234.469 647.973 234.842 649.26 234.842C649.768 234.842 650.589 234.757 651.723 234.588L651.85 237.076C651.054 237.364 649.971 237.508 648.6 237.508C646.518 237.508 645.003 236.907 644.055 235.705C643.107 234.486 642.633 232.701 642.633 230.348V212.016H637.58V209.527H642.633V202.494H645.68ZM677.865 232.811L686.219 209.527H689.342L679.084 237H676.621L666.312 209.527H669.436L677.865 232.811ZM697.246 237H694.199V209.527H697.246V237ZM693.666 201.58C693.666 201.005 693.852 200.522 694.225 200.133C694.597 199.727 695.105 199.523 695.748 199.523C696.391 199.523 696.899 199.727 697.271 200.133C697.661 200.522 697.855 201.005 697.855 201.58C697.855 202.156 697.661 202.638 697.271 203.027C696.899 203.417 696.391 203.611 695.748 203.611C695.105 203.611 694.597 203.417 694.225 203.027C693.852 202.638 693.666 202.156 693.666 201.58ZM715.662 237.508C713.326 237.508 711.21 236.932 709.314 235.781C707.436 234.63 705.971 233.031 704.922 230.982C703.872 228.917 703.348 226.607 703.348 224.051V222.959C703.348 220.318 703.855 217.94 704.871 215.824C705.904 213.708 707.334 212.049 709.162 210.848C710.99 209.629 712.971 209.02 715.104 209.02C718.438 209.02 721.079 210.162 723.025 212.447C724.989 214.715 725.971 217.822 725.971 221.766V223.467H706.369V224.051C706.369 227.165 707.258 229.764 709.035 231.846C710.829 233.911 713.081 234.943 715.789 234.943C717.414 234.943 718.844 234.647 720.08 234.055C721.333 233.462 722.467 232.514 723.482 231.211L725.387 232.658C723.152 235.891 719.911 237.508 715.662 237.508ZM715.104 211.609C712.818 211.609 710.889 212.447 709.314 214.123C707.757 215.799 706.809 218.05 706.471 220.877H722.949V220.547C722.865 217.906 722.111 215.757 720.689 214.098C719.268 212.439 717.406 211.609 715.104 211.609ZM737.963 230.678L738.42 233.039L739.029 230.551L745.631 209.527H748.221L754.746 230.373L755.457 233.268L756.041 230.602L761.678 209.527H764.826L756.828 237H754.238L747.18 215.215L746.85 213.717L746.52 215.24L739.588 237H736.998L729.025 209.527H732.148L737.963 230.678ZM780.729 237.508C778.393 237.508 776.277 236.932 774.381 235.781C772.502 234.63 771.038 233.031 769.988 230.982C768.939 228.917 768.414 226.607 768.414 224.051V222.959C768.414 220.318 768.922 217.94 769.938 215.824C770.97 213.708 772.4 212.049 774.229 210.848C776.057 209.629 778.037 209.02 780.17 209.02C783.505 209.02 786.145 210.162 788.092 212.447C790.055 214.715 791.037 217.822 791.037 221.766V223.467H771.436V224.051C771.436 227.165 772.324 229.764 774.102 231.846C775.896 233.911 778.147 234.943 780.855 234.943C782.48 234.943 783.911 234.647 785.146 234.055C786.399 233.462 787.533 232.514 788.549 231.211L790.453 232.658C788.219 235.891 784.977 237.508 780.729 237.508ZM780.17 211.609C777.885 211.609 775.955 212.447 774.381 214.123C772.824 215.799 771.876 218.05 771.537 220.877H788.016V220.547C787.931 217.906 787.178 215.757 785.756 214.098C784.334 212.439 782.472 211.609 780.17 211.609ZM795.234 223.01C795.234 218.744 796.182 215.35 798.078 212.828C799.991 210.289 802.581 209.02 805.848 209.02C809.555 209.02 812.382 210.484 814.328 213.412V198H817.35V237H814.506L814.379 233.344C812.432 236.12 809.572 237.508 805.797 237.508C802.632 237.508 800.076 236.238 798.129 233.699C796.199 231.143 795.234 227.699 795.234 223.365V223.01ZM798.307 223.543C798.307 227.047 799.009 229.814 800.414 231.846C801.819 233.86 803.799 234.867 806.355 234.867C810.096 234.867 812.754 233.217 814.328 229.916V217.018C812.754 213.446 810.113 211.66 806.406 211.66C803.85 211.66 801.861 212.667 800.439 214.682C799.018 216.679 798.307 219.633 798.307 223.543ZM540.742 279.01C540.742 274.71 541.69 271.308 543.586 268.803C545.499 266.281 548.105 265.02 551.406 265.02C555.113 265.02 557.932 266.433 559.861 269.26L560.014 265.527H562.857V303.562H559.811V289.598C557.813 292.204 554.995 293.508 551.355 293.508C548.139 293.508 545.566 292.238 543.637 289.699C541.707 287.16 540.742 283.732 540.742 279.416V279.01ZM543.814 279.543C543.814 283.098 544.525 285.891 545.947 287.922C547.386 289.936 549.375 290.943 551.914 290.943C555.553 290.943 558.186 289.361 559.811 286.195V272.738C559.049 271.096 557.991 269.835 556.637 268.955C555.299 268.058 553.742 267.609 551.965 267.609C549.409 267.609 547.411 268.625 545.973 270.656C544.534 272.671 543.814 275.633 543.814 279.543ZM588.129 289.521C586.301 292.179 583.381 293.508 579.369 293.508C576.441 293.508 574.215 292.661 572.691 290.969C571.168 289.259 570.389 286.737 570.355 283.402V265.527H573.377V283.021C573.377 288.252 575.493 290.867 579.725 290.867C584.126 290.867 586.91 289.048 588.078 285.408V265.527H591.125V293H588.18L588.129 289.521ZM609.186 293.508C606.85 293.508 604.734 292.932 602.838 291.781C600.959 290.63 599.495 289.031 598.445 286.982C597.396 284.917 596.871 282.607 596.871 280.051V278.959C596.871 276.318 597.379 273.94 598.395 271.824C599.427 269.708 600.857 268.049 602.686 266.848C604.514 265.629 606.494 265.02 608.627 265.02C611.962 265.02 614.602 266.162 616.549 268.447C618.512 270.715 619.494 273.822 619.494 277.766V279.467H599.893V280.051C599.893 283.165 600.781 285.764 602.559 287.846C604.353 289.911 606.604 290.943 609.312 290.943C610.938 290.943 612.368 290.647 613.604 290.055C614.856 289.462 615.99 288.514 617.006 287.211L618.91 288.658C616.676 291.891 613.434 293.508 609.186 293.508ZM608.627 267.609C606.342 267.609 604.412 268.447 602.838 270.123C601.281 271.799 600.333 274.05 599.994 276.877H616.473V276.547C616.388 273.906 615.635 271.757 614.213 270.098C612.791 268.439 610.929 267.609 608.627 267.609ZM641.363 286.018C641.363 284.511 640.754 283.301 639.535 282.387C638.333 281.473 636.514 280.762 634.076 280.254C631.639 279.729 629.743 279.137 628.389 278.477C627.051 277.799 626.053 276.979 625.393 276.014C624.749 275.049 624.428 273.881 624.428 272.51C624.428 270.343 625.333 268.557 627.145 267.152C628.956 265.73 631.275 265.02 634.102 265.02C637.165 265.02 639.62 265.781 641.465 267.305C643.327 268.811 644.258 270.783 644.258 273.221H641.211C641.211 271.613 640.534 270.275 639.18 269.209C637.842 268.143 636.15 267.609 634.102 267.609C632.104 267.609 630.496 268.058 629.277 268.955C628.076 269.835 627.475 270.986 627.475 272.408C627.475 273.779 627.974 274.846 628.973 275.607C629.988 276.352 631.825 277.038 634.482 277.664C637.157 278.29 639.154 278.959 640.475 279.67C641.812 280.381 642.802 281.236 643.445 282.234C644.089 283.233 644.41 284.443 644.41 285.865C644.41 288.184 643.471 290.038 641.592 291.426C639.73 292.814 637.292 293.508 634.279 293.508C631.08 293.508 628.482 292.738 626.484 291.197C624.504 289.64 623.514 287.676 623.514 285.307H626.561C626.679 287.084 627.424 288.472 628.795 289.471C630.183 290.452 632.011 290.943 634.279 290.943C636.395 290.943 638.105 290.478 639.408 289.547C640.712 288.616 641.363 287.439 641.363 286.018ZM655.488 258.494V265.527H661.176V268.016H655.488V286.322C655.488 287.846 655.759 288.98 656.301 289.725C656.859 290.469 657.782 290.842 659.068 290.842C659.576 290.842 660.397 290.757 661.531 290.588L661.658 293.076C660.863 293.364 659.779 293.508 658.408 293.508C656.326 293.508 654.811 292.907 653.863 291.705C652.915 290.486 652.441 288.701 652.441 286.348V268.016H647.389V265.527H652.441V258.494H655.488ZM670.375 293H667.328V265.527H670.375V293ZM666.795 257.58C666.795 257.005 666.981 256.522 667.354 256.133C667.726 255.727 668.234 255.523 668.877 255.523C669.52 255.523 670.028 255.727 670.4 256.133C670.79 256.522 670.984 257.005 670.984 257.58C670.984 258.156 670.79 258.638 670.4 259.027C670.028 259.417 669.52 259.611 668.877 259.611C668.234 259.611 667.726 259.417 667.354 259.027C666.981 258.638 666.795 258.156 666.795 257.58ZM676.477 278.857C676.477 276.217 676.984 273.839 678 271.723C679.033 269.607 680.48 267.965 682.342 266.797C684.221 265.612 686.345 265.02 688.715 265.02C692.371 265.02 695.333 266.306 697.602 268.879C699.87 271.435 701.004 274.829 701.004 279.061V279.695C701.004 282.353 700.488 284.748 699.455 286.881C698.439 288.997 697.001 290.63 695.139 291.781C693.277 292.932 691.152 293.508 688.766 293.508C685.126 293.508 682.164 292.23 679.879 289.674C677.611 287.101 676.477 283.699 676.477 279.467V278.857ZM679.523 279.695C679.523 282.979 680.37 285.679 682.062 287.795C683.772 289.894 686.007 290.943 688.766 290.943C691.508 290.943 693.725 289.894 695.418 287.795C697.128 285.679 697.982 282.895 697.982 279.441V278.857C697.982 276.758 697.593 274.837 696.814 273.094C696.036 271.35 694.944 270.005 693.539 269.057C692.134 268.092 690.526 267.609 688.715 267.609C686.007 267.609 683.798 268.676 682.088 270.809C680.378 272.924 679.523 275.701 679.523 279.137V279.695ZM709.695 265.527L709.797 270.225C710.829 268.532 712.116 267.245 713.656 266.365C715.197 265.468 716.898 265.02 718.76 265.02C721.705 265.02 723.897 265.849 725.336 267.508C726.775 269.167 727.503 271.655 727.52 274.973V293H724.498V274.947C724.481 272.493 723.956 270.665 722.924 269.463C721.908 268.261 720.275 267.66 718.023 267.66C716.145 267.66 714.477 268.253 713.021 269.438C711.583 270.605 710.516 272.188 709.822 274.186V293H706.801V265.527H709.695ZM751.344 286.018C751.344 284.511 750.734 283.301 749.516 282.387C748.314 281.473 746.494 280.762 744.057 280.254C741.619 279.729 739.723 279.137 738.369 278.477C737.032 277.799 736.033 276.979 735.373 276.014C734.73 275.049 734.408 273.881 734.408 272.51C734.408 270.343 735.314 268.557 737.125 267.152C738.936 265.73 741.255 265.02 744.082 265.02C747.146 265.02 749.6 265.781 751.445 267.305C753.307 268.811 754.238 270.783 754.238 273.221H751.191C751.191 271.613 750.514 270.275 749.16 269.209C747.823 268.143 746.13 267.609 744.082 267.609C742.085 267.609 740.477 268.058 739.258 268.955C738.056 269.835 737.455 270.986 737.455 272.408C737.455 273.779 737.954 274.846 738.953 275.607C739.969 276.352 741.805 277.038 744.463 277.664C747.137 278.29 749.135 278.959 750.455 279.67C751.792 280.381 752.783 281.236 753.426 282.234C754.069 283.233 754.391 284.443 754.391 285.865C754.391 288.184 753.451 290.038 751.572 291.426C749.71 292.814 747.273 293.508 744.26 293.508C741.061 293.508 738.462 292.738 736.465 291.197C734.484 289.64 733.494 287.676 733.494 285.307H736.541C736.66 287.084 737.404 288.472 738.775 289.471C740.163 290.452 741.992 290.943 744.26 290.943C746.376 290.943 748.085 290.478 749.389 289.547C750.692 288.616 751.344 287.439 751.344 286.018ZM771.215 278.857C771.215 276.217 771.723 273.839 772.738 271.723C773.771 269.607 775.218 267.965 777.08 266.797C778.959 265.612 781.083 265.02 783.453 265.02C787.109 265.02 790.072 266.306 792.34 268.879C794.608 271.435 795.742 274.829 795.742 279.061V279.695C795.742 282.353 795.226 284.748 794.193 286.881C793.178 288.997 791.739 290.63 789.877 291.781C788.015 292.932 785.891 293.508 783.504 293.508C779.865 293.508 776.902 292.23 774.617 289.674C772.349 287.101 771.215 283.699 771.215 279.467V278.857ZM774.262 279.695C774.262 282.979 775.108 285.679 776.801 287.795C778.51 289.894 780.745 290.943 783.504 290.943C786.246 290.943 788.464 289.894 790.156 287.795C791.866 285.679 792.721 282.895 792.721 279.441V278.857C792.721 276.758 792.331 274.837 791.553 273.094C790.774 271.35 789.682 270.005 788.277 269.057C786.872 268.092 785.264 267.609 783.453 267.609C780.745 267.609 778.536 268.676 776.826 270.809C775.117 272.924 774.262 275.701 774.262 279.137V279.695ZM803.723 293V268.016H799.178V265.527H803.723V262.201C803.723 259.391 804.434 257.233 805.855 255.727C807.294 254.22 809.292 253.467 811.848 253.467C812.999 253.467 814.074 253.611 815.072 253.898L814.844 256.438C813.997 256.234 813.075 256.133 812.076 256.133C810.4 256.133 809.097 256.658 808.166 257.707C807.235 258.74 806.77 260.212 806.77 262.125V265.527H813.32V268.016H806.77V293H803.723ZM559.303 349C558.998 348.137 558.803 346.859 558.719 345.166C557.652 346.554 556.29 347.629 554.631 348.391C552.989 349.135 551.245 349.508 549.4 349.508C546.76 349.508 544.618 348.771 542.977 347.299C541.352 345.826 540.539 343.964 540.539 341.713C540.539 339.038 541.648 336.923 543.865 335.365C546.1 333.808 549.206 333.029 553.184 333.029H558.693V329.906C558.693 327.943 558.084 326.402 556.865 325.285C555.663 324.151 553.903 323.584 551.584 323.584C549.468 323.584 547.716 324.126 546.328 325.209C544.94 326.292 544.246 327.596 544.246 329.119L541.199 329.094C541.199 326.91 542.215 325.023 544.246 323.432C546.277 321.824 548.774 321.02 551.736 321.02C554.8 321.02 557.212 321.79 558.973 323.33C560.75 324.854 561.664 326.986 561.715 329.729V342.729C561.715 345.386 561.994 347.375 562.553 348.695V349H559.303ZM549.756 346.816C551.787 346.816 553.598 346.326 555.189 345.344C556.798 344.362 557.965 343.05 558.693 341.408V335.365H553.26C550.23 335.399 547.86 335.958 546.15 337.041C544.441 338.107 543.586 339.58 543.586 341.459C543.586 342.999 544.153 344.277 545.287 345.293C546.438 346.309 547.928 346.816 549.756 346.816ZM572.742 349H569.695V310H572.742V349ZM583.922 349H580.875V310H583.922V349ZM608.566 314.494V321.527H614.254V324.016H608.566V342.322C608.566 343.846 608.837 344.98 609.379 345.725C609.938 346.469 610.86 346.842 612.146 346.842C612.654 346.842 613.475 346.757 614.609 346.588L614.736 349.076C613.941 349.364 612.857 349.508 611.486 349.508C609.404 349.508 607.889 348.907 606.941 347.705C605.993 346.486 605.52 344.701 605.52 342.348V324.016H600.467V321.527H605.52V314.494H608.566ZM623.453 349H620.406V321.527H623.453V349ZM619.873 313.58C619.873 313.005 620.059 312.522 620.432 312.133C620.804 311.727 621.312 311.523 621.955 311.523C622.598 311.523 623.106 311.727 623.479 312.133C623.868 312.522 624.062 313.005 624.062 313.58C624.062 314.156 623.868 314.638 623.479 315.027C623.106 315.417 622.598 315.611 621.955 315.611C621.312 315.611 620.804 315.417 620.432 315.027C620.059 314.638 619.873 314.156 619.873 313.58ZM633.998 321.527L634.1 325.996C635.115 324.337 636.385 323.093 637.908 322.264C639.432 321.434 641.124 321.02 642.986 321.02C647.32 321.02 650.07 322.797 651.238 326.352C652.22 324.642 653.532 323.33 655.174 322.416C656.816 321.485 658.627 321.02 660.607 321.02C666.498 321.02 669.503 324.236 669.621 330.668V349H666.574V330.896C666.557 328.442 666.024 326.622 664.975 325.438C663.942 324.253 662.249 323.66 659.896 323.66C657.713 323.694 655.868 324.405 654.361 325.793C652.855 327.164 652.017 328.84 651.848 330.82V349H648.801V330.668C648.784 328.315 648.225 326.563 647.125 325.412C646.042 324.244 644.366 323.66 642.098 323.66C640.185 323.66 638.543 324.21 637.172 325.311C635.801 326.394 634.785 328.01 634.125 330.16V349H631.078V321.527H633.998ZM687.479 349.508C685.143 349.508 683.027 348.932 681.131 347.781C679.252 346.63 677.788 345.031 676.738 342.982C675.689 340.917 675.164 338.607 675.164 336.051V334.959C675.164 332.318 675.672 329.94 676.688 327.824C677.72 325.708 679.15 324.049 680.979 322.848C682.807 321.629 684.787 321.02 686.92 321.02C690.255 321.02 692.895 322.162 694.842 324.447C696.805 326.715 697.787 329.822 697.787 333.766V335.467H678.186V336.051C678.186 339.165 679.074 341.764 680.852 343.846C682.646 345.911 684.897 346.943 687.605 346.943C689.23 346.943 690.661 346.647 691.896 346.055C693.149 345.462 694.283 344.514 695.299 343.211L697.203 344.658C694.969 347.891 691.727 349.508 687.479 349.508ZM686.92 323.609C684.635 323.609 682.705 324.447 681.131 326.123C679.574 327.799 678.626 330.05 678.287 332.877H694.766V332.547C694.681 329.906 693.928 327.757 692.506 326.098C691.084 324.439 689.222 323.609 686.92 323.609ZM702.924 347.172C702.924 346.579 703.11 346.08 703.482 345.674C703.872 345.251 704.405 345.039 705.082 345.039C705.759 345.039 706.292 345.251 706.682 345.674C707.071 346.08 707.266 346.579 707.266 347.172C707.266 347.764 707.071 348.255 706.682 348.645C706.292 349.017 705.759 349.203 705.082 349.203C704.405 349.203 703.872 349.017 703.482 348.645C703.11 348.255 702.924 347.764 702.924 347.172Z" fill="white"/>
<path d="M216.102 453H133.582V190.305L52.5273 213.986V151.486L208.533 97.5312H216.102V453Z" fill="white"/>
<rect y="504" width="828" height="1" fill="#4F4F4F"/>
<path d="M380.492 426C324.727 426 279 385.339 279 335.256V216.248C279 166.661 324.727 126 380.492 126C436.256 126 481.983 166.661 481.983 216.248V335.256C482.541 385.339 436.814 426 380.492 426Z" stroke="#F48024" stroke-width="58" stroke-miterlimit="10" stroke-dasharray="8 8"/>
<circle cx="568" cy="423" r="29" stroke="white" stroke-width="2"/>
<rect x="566.75" y="409" width="2" height="25" fill="#E4853D"/>
<rect x="571.9" y="429" width="2" height="8" transform="rotate(45 571.9 429)" fill="#E4853D"/>
<rect x="569.071" y="434.657" width="2" height="8" transform="rotate(135 569.071 434.657)" fill="#E4853D"/>
</svg>
