<svg width="34" height="40" viewBox="0 0 34 40" fill="none" xmlns="http://www.w3.org/2000/svg">
<path d="M30.6153 4.69622C30.614 4.69622 30.6127 4.69622 30.6113 4.69622C29.2451 4.69622 28.1324 5.80666 28.1303 7.17342L28.1246 10.778L18.0312 0.684601C17.1183 -0.2282 15.6331 -0.2282 14.7204 0.684601C14.4022 1.00278 14.1953 1.39051 14.0989 1.79924L13.9189 1.61908C13.4766 1.17694 12.8888 0.933469 12.2634 0.933469C11.638 0.933469 11.0502 1.17694 10.6078 1.61916C9.69513 2.53196 9.69513 4.01729 10.6079 4.93018L11.1651 5.48737C10.7471 5.58615 10.3636 5.79843 10.0524 6.10967C9.61015 6.55181 9.36659 7.13975 9.36659 7.76513C9.36659 8.39052 9.61015 8.97846 10.0523 9.4206L11.1991 10.5674C10.7901 10.6637 10.4019 10.8705 10.0834 11.1887C9.64133 11.6309 9.39777 12.2188 9.39777 12.8442C9.39777 13.4696 9.64133 14.0575 10.0834 14.4996L10.8452 15.2615C10.81 15.4227 10.7909 15.59 10.7909 15.7615V17.3826C10.4338 17.1617 10.0133 17.0339 9.56346 17.0339C8.2726 17.0339 7.22239 18.0841 7.22239 19.3751V31.5304C7.22239 34.207 8.15069 36.826 9.8364 38.905C9.9464 39.0407 10.1071 39.1111 10.2693 39.1111C10.3925 39.1111 10.5165 39.0704 10.6197 38.9868C10.8585 38.7931 10.8952 38.4425 10.7015 38.2035C9.17615 36.3223 8.33617 33.9524 8.33617 31.5304V19.3751C8.33617 18.6983 8.88676 18.1476 9.56354 18.1476C10.2403 18.1476 10.791 18.6982 10.791 19.3751V27.1846C10.791 27.4921 11.0403 27.7414 11.3479 27.7414C11.6554 27.7414 11.9047 27.4921 11.9047 27.1846V15.7616C11.9047 15.0849 12.4554 14.5342 13.1322 14.5342C13.8089 14.5342 14.3596 15.0848 14.3596 15.7616V26.4377C14.3596 26.7452 14.6089 26.9945 14.9165 26.9945C15.224 26.9945 15.4733 26.7452 15.4733 26.4377V12.9793C15.4733 12.3025 16.024 11.7518 16.7008 11.7518C17.3776 11.7518 17.9282 12.3025 17.9282 12.9793V23.865V27.0186C17.9282 27.3262 18.1775 27.5755 18.485 27.5755C18.7926 27.5755 19.0419 27.3262 19.0419 27.0186V23.865V15.2264C19.0419 14.5496 19.5925 13.9989 20.2693 13.9989C20.9461 13.9989 21.4968 14.5496 21.4968 15.2264C21.4968 15.2264 21.498 30.8837 21.5004 30.9046C21.514 31.0253 21.5669 31.1423 21.6593 31.235C21.8764 31.4527 22.229 31.4533 22.4468 31.2363L25.9496 27.7445C26.4835 27.2121 27.3511 27.2136 27.8834 27.7476C28.4154 28.2812 28.4143 29.1485 27.881 29.6808L19.5238 38.0222C19.3061 38.2394 19.3058 38.592 19.5231 38.8096C19.6319 38.9186 19.7745 38.9731 19.9172 38.9731C20.0595 38.9731 20.2019 38.9189 20.3106 38.8104L28.6678 30.469C29.6355 29.5032 29.6375 27.9296 28.6722 26.9613C27.7063 25.9923 26.1323 25.9899 25.1634 26.9557L22.6106 29.5005V25.6859C23.4128 26.0075 24.2491 26.2392 25.1067 26.3768C25.1366 26.3816 25.1662 26.3839 25.1955 26.3839C25.4643 26.3839 25.7007 26.1889 25.7447 25.9151C25.7933 25.6115 25.5867 25.3258 25.283 25.2771C24.3582 25.1288 23.461 24.8589 22.6106 24.4751V15.2264C22.6106 13.9354 21.5603 12.8852 20.2694 12.8852C20.2266 12.8852 20.184 12.8866 20.1417 12.8888L11.3953 4.1428C10.9167 3.66416 10.9167 2.88535 11.3952 2.4068C11.6271 2.1749 11.9355 2.04725 12.2633 2.04725C12.5912 2.04725 12.8995 2.1749 13.1313 2.40672L23.0587 12.334C23.276 12.5515 23.6287 12.5515 23.8462 12.334C24.0636 12.1165 24.0636 11.764 23.8461 11.5466L15.5078 3.20806C15.2759 2.97624 15.1483 2.66801 15.1483 2.34015C15.1483 2.0123 15.2759 1.70406 15.5078 1.47224C15.9865 0.993609 16.765 0.993609 17.2438 1.47224L27.767 11.9954C26.2675 12.7267 25.0842 13.9492 24.4007 15.4924C23.6332 17.225 23.5864 19.1528 24.2689 20.9205C24.3542 21.1416 24.565 21.277 24.7884 21.277C24.8551 21.277 24.9229 21.2649 24.9889 21.2395C25.2758 21.1287 25.4186 20.8063 25.3078 20.5194C24.7325 19.0291 24.772 17.404 25.419 15.9433C26.0659 14.4827 27.2345 13.3388 28.7333 12.7862C29.249 12.5961 29.236 12.2426 29.2362 12.1211L29.2441 7.17513C29.2447 6.80984 29.3874 6.46674 29.646 6.20887C29.9042 5.95152 30.247 5.80991 30.6114 5.80991C30.6122 5.80991 30.6129 5.80991 30.6136 5.80991C31.3671 5.81111 31.9796 6.4251 31.9789 7.17864L31.9677 18.9863C31.9675 19.2938 32.2165 19.5434 32.5241 19.5437C32.5242 19.5437 32.5244 19.5437 32.5246 19.5437C32.8319 19.5437 33.0812 19.2947 33.0814 18.9873L33.0926 7.17967C33.0938 5.81248 31.9826 4.69844 30.6153 4.69622ZM13.132 13.4206C12.4328 13.4206 11.8046 13.7291 11.3753 14.2167L10.8708 13.7123C10.6391 13.4804 10.5115 13.1722 10.5115 12.8443C10.5115 12.5163 10.6391 12.2081 10.8706 11.9765C11.3497 11.4982 12.1287 11.498 12.607 11.9763C12.6084 11.9776 12.6101 11.9785 12.6115 11.9799L14.3595 13.7279V13.7693C14.0023 13.5484 13.5818 13.4206 13.132 13.4206ZM14.4713 12.2648L10.8398 8.63322C10.6079 8.4014 10.4803 8.09307 10.4803 7.76522C10.4803 7.43736 10.6079 7.12904 10.8398 6.89722C11.0716 6.6654 11.3799 6.53776 11.7078 6.53776C12.0298 6.53776 12.3331 6.66103 12.5624 6.8848L16.343 10.6655C15.4602 10.8013 14.7388 11.4323 14.4713 12.2648Z" fill="#888888"/>
<path d="M5.53111 13.1607C5.79429 13.1607 6.02834 12.9733 6.07802 12.7052C6.13397 12.4028 5.93427 12.1123 5.63186 12.0563L0.817441 11.1647C0.515373 11.1085 0.224527 11.3083 0.1685 11.6109C0.112558 11.9133 0.312252 12.2038 0.614663 12.2598L5.42908 13.1514C5.46335 13.1577 5.49745 13.1607 5.53111 13.1607Z" fill="#888888"/>
<path d="M7.74754 10.0012C8.00095 9.82691 8.06511 9.48021 7.89095 9.2268L5.117 5.19205C4.94266 4.93864 4.59604 4.87456 4.34264 5.04864C4.08923 5.22289 4.02506 5.5696 4.19923 5.823L6.97318 9.85775C7.08121 10.0148 7.25537 10.0992 7.43254 10.0992C7.54134 10.0992 7.65116 10.0674 7.74754 10.0012Z" fill="#888888"/>
<path d="M6.0352 15.6544L2.00045 18.4283C1.74704 18.6026 1.68288 18.9493 1.85704 19.2027C1.96507 19.3597 2.13923 19.4441 2.3164 19.4441C2.4252 19.4441 2.53502 19.4123 2.6314 19.3461L6.66615 16.5722C6.91956 16.3979 6.98372 16.0512 6.80956 15.7978C6.63522 15.5444 6.2886 15.4802 6.0352 15.6544Z" fill="#888888"/>
</svg>
